<svg xmlns="http://www.w3.org/2000/svg" width="1500" height="900" viewBox="0 0 1500 900" role="img" aria-labelledby="title desc">
  <title id="title">AI Career Mentor Production Architecture</title>
  <desc id="desc">Visual architecture diagram showing browser, frontend, FastAPI backend, AI agents, external services, database, security controls, and deployment flow.</desc>
  <defs>
    <marker id="arrow-blue" markerWidth="12" markerHeight="12" refX="10" refY="6" orient="auto">
      <path d="M2,2 L10,6 L2,10 Z" fill="#2563eb" />
    </marker>
    <marker id="arrow-green" markerWidth="12" markerHeight="12" refX="10" refY="6" orient="auto">
      <path d="M2,2 L10,6 L2,10 Z" fill="#16a34a" />
    </marker>
    <marker id="arrow-purple" markerWidth="12" markerHeight="12" refX="10" refY="6" orient="auto">
      <path d="M2,2 L10,6 L2,10 Z" fill="#7c3aed" />
    </marker>
    <marker id="arrow-orange" markerWidth="12" markerHeight="12" refX="10" refY="6" orient="auto">
      <path d="M2,2 L10,6 L2,10 Z" fill="#d97706" />
    </marker>
    <filter id="shadow" x="-20%" y="-20%" width="140%" height="140%">
      <feDropShadow dx="0" dy="8" stdDeviation="8" flood-color="#0f172a" flood-opacity="0.12" />
    </filter>
    <style>
      .bg { fill: #f8fafc; }
      .title { font: 800 32px Arial, sans-serif; fill: #0f172a; }
      .subtitle { font: 500 15px Arial, sans-serif; fill: #475569; }
      .lane-title { font: 700 17px Arial, sans-serif; fill: #0f172a; }
      .box-title { font: 700 15px Arial, sans-serif; fill: #0f172a; }
      .box-text { font: 500 12px Arial, sans-serif; fill: #334155; }
      .label { font: 700 12px Arial, sans-serif; fill: #334155; }
      .lane { fill: #ffffff; stroke: #cbd5e1; stroke-width: 2; rx: 18; filter: url(#shadow); }
      .box { stroke-width: 2; rx: 14; }
      .arrow-blue { stroke: #2563eb; stroke-width: 3; fill: none; marker-end: url(#arrow-blue); }
      .arrow-green { stroke: #16a34a; stroke-width: 3; fill: none; marker-end: url(#arrow-green); }
      .arrow-purple { stroke: #7c3aed; stroke-width: 3; fill: none; marker-end: url(#arrow-purple); }
      .arrow-orange { stroke: #d97706; stroke-width: 3; fill: none; marker-end: url(#arrow-orange); }
    </style>
  </defs>

  <rect class="bg" width="1500" height="900" />
  <text x="750" y="50" text-anchor="middle" class="title">AI Career Mentor - Production Architecture</text>
  <text x="750" y="78" text-anchor="middle" class="subtitle">Next.js frontend + FastAPI backend + JWT auth + AutoGen agents + Postgres-ready deployment</text>

  <rect x="40" y="255" width="155" height="95" rx="18" fill="#e0f2fe" stroke="#0284c7" stroke-width="2" filter="url(#shadow)" />
  <text x="117" y="292" text-anchor="middle" class="box-title">User Browser</text>
  <text x="117" y="318" text-anchor="middle" class="box-text">Student / Developer</text>

  <rect x="250" y="115" width="260" height="420" class="lane" />
  <text x="380" y="145" text-anchor="middle" class="lane-title">Frontend</text>
  <text x="380" y="168" text-anchor="middle" class="subtitle">Vercel / Local :3000</text>

  <rect x="280" y="195" width="200" height="66" class="box" fill="#ffffff" stroke="#64748b" />
  <text x="380" y="221" text-anchor="middle" class="box-title">Next.js 16</text>
  <text x="380" y="243" text-anchor="middle" class="box-text">React 19 + TypeScript</text>

  <rect x="280" y="282" width="200" height="78" class="box" fill="#ecfeff" stroke="#0891b2" />
  <text x="380" y="310" text-anchor="middle" class="box-title">Dashboard Pages</text>
  <text x="380" y="332" text-anchor="middle" class="box-text">resume, roadmap, market</text>
  <text x="380" y="350" text-anchor="middle" class="box-text">interview, linkedin</text>

  <rect x="280" y="382" width="200" height="62" class="box" fill="#fef9c3" stroke="#ca8a04" />
  <text x="380" y="407" text-anchor="middle" class="box-title">Axios API Client</text>
  <text x="380" y="429" text-anchor="middle" class="box-text">Bearer JWT interceptor</text>

  <rect x="280" y="462" width="200" height="50" class="box" fill="#dcfce7" stroke="#16a34a" />
  <text x="380" y="492" text-anchor="middle" class="box-title">WebSocket Client</text>

  <rect x="590" y="95" width="330" height="500" class="lane" />
  <text x="755" y="125" text-anchor="middle" class="lane-title">Backend</text>
  <text x="755" y="148" text-anchor="middle" class="subtitle">FastAPI / Render Docker :8000</text>

  <rect x="625" y="175" width="260" height="64" class="box" fill="#ede9fe" stroke="#7c3aed" />
  <text x="755" y="200" text-anchor="middle" class="box-title">FastAPI App</text>
  <text x="755" y="222" text-anchor="middle" class="box-text">CORS + rate limit + logs</text>

  <rect x="625" y="260" width="260" height="78" class="box" fill="#fee2e2" stroke="#dc2626" />
  <text x="755" y="287" text-anchor="middle" class="box-title">Auth Layer</text>
  <text x="755" y="309" text-anchor="middle" class="box-text">JWT validation + bcrypt</text>
  <text x="755" y="327" text-anchor="middle" class="box-text">get_current_user</text>

  <rect x="625" y="360" width="260" height="78" class="box" fill="#dbeafe" stroke="#2563eb" />
  <text x="755" y="387" text-anchor="middle" class="box-title">API Routers</text>
  <text x="755" y="409" text-anchor="middle" class="box-text">auth, resume, roadmap</text>
  <text x="755" y="427" text-anchor="middle" class="box-text">market, career, linkedin</text>

  <rect x="625" y="460" width="260" height="80" class="box" fill="#dcfce7" stroke="#16a34a" />
  <text x="755" y="487" text-anchor="middle" class="box-title">Protected WebSocket</text>
  <text x="755" y="509" text-anchor="middle" class="box-text">/interview/ws/{session_id}</text>
  <text x="755" y="527" text-anchor="middle" class="box-text">token checked before accept</text>

  <rect x="1000" y="115" width="280" height="420" class="lane" />
  <text x="1140" y="145" text-anchor="middle" class="lane-title">AI Agent Layer</text>
  <text x="1140" y="168" text-anchor="middle" class="subtitle">AutoGen / ag2</text>

  <rect x="1030" y="195" width="220" height="52" class="box" fill="#f0f9ff" stroke="#0284c7" />
  <text x="1140" y="217" text-anchor="middle" class="box-title">Resume Analyst</text>
  <text x="1140" y="235" text-anchor="middle" class="box-text">skills, strengths, gaps</text>

  <rect x="1030" y="262" width="220" height="52" class="box" fill="#f0fdf4" stroke="#16a34a" />
  <text x="1140" y="284" text-anchor="middle" class="box-title">Career Coach</text>
  <text x="1140" y="302" text-anchor="middle" class="box-text">8-week roadmap</text>

  <rect x="1030" y="329" width="220" height="52" class="box" fill="#fefce8" stroke="#ca8a04" />
  <text x="1140" y="351" text-anchor="middle" class="box-title">Market Researcher</text>
  <text x="1140" y="369" text-anchor="middle" class="box-text">salary, skills, companies</text>

  <rect x="1030" y="396" width="220" height="52" class="box" fill="#eff6ff" stroke="#2563eb" />
  <text x="1140" y="418" text-anchor="middle" class="box-title">LinkedIn Reviewer</text>
  <text x="1140" y="436" text-anchor="middle" class="box-text">profile score + keywords</text>

  <rect x="1030" y="463" width="220" height="52" class="box" fill="#fae8ff" stroke="#a21caf" />
  <text x="1140" y="485" text-anchor="middle" class="box-title">Mock Interviewer</text>
  <text x="1140" y="503" text-anchor="middle" class="box-text">questions, feedback, score</text>

  <rect x="1320" y="165" width="150" height="320" class="lane" />
  <text x="1395" y="195" text-anchor="middle" class="lane-title">External</text>

  <rect x="1340" y="225" width="110" height="60" class="box" fill="#ede9fe" stroke="#7c3aed" />
  <text x="1395" y="249" text-anchor="middle" class="box-title">LLM</text>
  <text x="1395" y="269" text-anchor="middle" class="box-text">Groq/OpenAI</text>

  <rect x="1340" y="315" width="110" height="60" class="box" fill="#fef3c7" stroke="#d97706" />
  <text x="1395" y="339" text-anchor="middle" class="box-title">Search</text>
  <text x="1395" y="359" text-anchor="middle" class="box-text">DuckDuckGo</text>

  <rect x="1340" y="405" width="110" height="60" class="box" fill="#dcfce7" stroke="#16a34a" />
  <text x="1395" y="429" text-anchor="middle" class="box-title">Edge TTS</text>
  <text x="1395" y="449" text-anchor="middle" class="box-text">voice audio</text>

  <rect x="590" y="650" width="690" height="190" class="lane" />
  <text x="935" y="680" text-anchor="middle" class="lane-title">Data and Runtime State</text>

  <rect x="635" y="720" width="180" height="80" rx="40" fill="#dbeafe" stroke="#2563eb" stroke-width="2" />
  <text x="725" y="748" text-anchor="middle" class="box-title">Postgres</text>
  <text x="725" y="770" text-anchor="middle" class="box-text">production DB</text>
  <text x="725" y="788" text-anchor="middle" class="box-text">recommended</text>

  <rect x="850" y="720" width="165" height="80" rx="40" fill="#fef3c7" stroke="#d97706" stroke-width="2" />
  <text x="932" y="748" text-anchor="middle" class="box-title">SQLite</text>
  <text x="932" y="770" text-anchor="middle" class="box-text">local dev.db</text>

  <rect x="1050" y="720" width="180" height="80" rx="40" fill="#fee2e2" stroke="#dc2626" stroke-width="2" />
  <text x="1140" y="748" text-anchor="middle" class="box-title">Redis Future</text>
  <text x="1140" y="770" text-anchor="middle" class="box-text">cache, jobs, WS scale</text>

  <rect x="40" y="650" width="470" height="190" class="lane" />
  <text x="275" y="680" text-anchor="middle" class="lane-title">Deployment and CI/CD</text>

  <rect x="75" y="720" width="165" height="60" class="box" fill="#f1f5f9" stroke="#475569" />
  <text x="157" y="744" text-anchor="middle" class="box-title">GitHub Repo</text>
  <text x="157" y="764" text-anchor="middle" class="box-text">source + PRs</text>

  <rect x="305" y="720" width="165" height="60" class="box" fill="#ecfeff" stroke="#0891b2" />
  <text x="387" y="744" text-anchor="middle" class="box-title">CI Checks</text>
  <text x="387" y="764" text-anchor="middle" class="box-text">lint, build, pytest</text>

  <rect x="75" y="790" width="165" height="35" class="box" fill="#dcfce7" stroke="#16a34a" />
  <text x="157" y="812" text-anchor="middle" class="box-title">Render Backend</text>

  <rect x="305" y="790" width="165" height="35" class="box" fill="#ede9fe" stroke="#7c3aed" />
  <text x="387" y="812" text-anchor="middle" class="box-title">Vercel Frontend</text>

  <rect x="1320" y="650" width="150" height="190" class="lane" />
  <text x="1395" y="680" text-anchor="middle" class="lane-title">Security</text>
  <rect x="1340" y="715" width="110" height="30" class="box" fill="#fee2e2" stroke="#dc2626" />
  <text x="1395" y="735" text-anchor="middle" class="box-text">CORS_ORIGINS</text>
  <rect x="1340" y="755" width="110" height="30" class="box" fill="#fef3c7" stroke="#d97706" />
  <text x="1395" y="775" text-anchor="middle" class="box-text">SECRET_KEY</text>
  <rect x="1340" y="795" width="110" height="30" class="box" fill="#dcfce7" stroke="#16a34a" />
  <text x="1395" y="815" text-anchor="middle" class="box-text">safe chat UI</text>

  <path d="M195 303 H250" class="arrow-blue" />
  <text x="220" y="292" text-anchor="middle" class="label">HTTPS</text>

  <path d="M510 315 H590" class="arrow-blue" />
  <text x="550" y="302" text-anchor="middle" class="label">REST + JWT</text>

  <path d="M480 487 C530 487 560 500 625 500" class="arrow-green" />
  <text x="548" y="476" text-anchor="middle" class="label">WS + token</text>

  <path d="M920 320 H1000" class="arrow-purple" />
  <text x="960" y="307" text-anchor="middle" class="label">prompts</text>

  <path d="M1280 255 H1340" class="arrow-purple" />
  <text x="1310" y="242" text-anchor="middle" class="label">LLM calls</text>

  <path d="M1250 355 H1340" class="arrow-orange" />
  <text x="1295" y="342" text-anchor="middle" class="label">search tool</text>

  <path d="M885 500 C1080 610 1260 445 1340 435" class="arrow-green" />
  <text x="1120" y="575" text-anchor="middle" class="label">audio generation</text>

  <path d="M755 540 V635 C755 670 725 690 725 720" class="arrow-blue" />
  <text x="800" y="628" text-anchor="middle" class="label">SQLAlchemy</text>

  <path d="M240 750 H305" class="arrow-blue" />
  <path d="M350 720 C315 690 210 595 380 535" class="arrow-purple" />
  <path d="M425 720 C495 650 610 610 755 595" class="arrow-green" />
  <text x="500" y="646" text-anchor="middle" class="label">deploys</text>
</svg>
